# xmcd
#
# Track frame offsets:
# 150
# 15642
# 32877
# 66824
# 87193
# 104073
# 127018
# 145532
# 162134
# 179870
#
# Disc length: 2623 seconds
#
#
# Revision: 0
# Processed by: cddbd v1.5.2PL0 Copyright (c) Steve Scherf et al.
# Submitted via: Nero 7, 11, 10, 0 
#
DISCID=8a0a3d0a
DTITLE=B.B. Major - I'm Not Ashamed (To Sing The Blues)
DYEAR=2003
DGENRE=Blues
TTITLE0=I'm Not Ashamed (To Sing The Blues)
TTITLE1=Hooked On You
TTITLE2=Sweet Thing Baby
TTITLE3=I'm So Alone
TTITLE4=Leaving You
TTITLE5=Bless Me With Your love
TTITLE6=I Found A Love
TTITLE7=Baby Please Don't Go
TTITLE8=Angel In Disguise
TTITLE9=Rainy Day Blues
EXTD=
EXTT0=I'm Not Ashamed (To Sing The Blues)
EXTT1=Hooked On You
EXTT2=Sweet Thing Baby
EXTT3=I'm So Alone
EXTT4=Leaving You
EXTT5=Bless Me With Your love
EXTT6=I Found A Love
EXTT7=Baby Please Don't Go
EXTT8=Angel In Disguise
EXTT9=Rainy Day Blues
PLAYORDER=
